<svg xmlns="http://www.w3.org/2000/svg" xmlns:xlink="http://www.w3.org/1999/xlink" width="1600" zoomAndPan="magnify" viewBox="0 0 1200 299.999988" height="400" preserveAspectRatio="xMidYMid meet" version="1.0"><defs><g/></defs><g fill="#5651e5" fill-opacity="1"><g transform="translate(124.433486, 192.844173)"><g><path d="M 84.957031 -20.566406 L 31.160156 -58.371094 L 84.957031 -95.96875 L 84.957031 -111.546875 L 14.539062 -62.316406 L 14.539062 -54.421875 L 84.957031 -5.191406 Z M 84.957031 -20.566406 "/></g></g></g><g fill="#1f2937" fill-opacity="1"><g transform="translate(223.845379, 192.844173)"><g><path d="M 81.21875 -62.316406 C 81.21875 -51.722656 74.15625 -43 57.332031 -43 C 40.507812 -43 33.445312 -51.929688 33.445312 -62.316406 C 33.445312 -72.910156 40.507812 -81.636719 57.332031 -81.636719 C 74.15625 -81.636719 81.21875 -72.910156 81.21875 -62.316406 Z M 70.832031 20.773438 C 70.832031 27.417969 66.886719 32.613281 57.332031 32.613281 C 47.777344 32.613281 43.828125 27.417969 43.828125 20.773438 C 43.828125 14.125 47.777344 8.933594 57.332031 8.933594 C 66.886719 8.933594 70.832031 14.125 70.832031 20.773438 Z M 93.683594 20.773438 C 93.683594 7.6875 85.167969 -3.738281 69.792969 -7.894531 L 69.792969 -20.773438 C 93.058594 -25.34375 106.144531 -42.375 106.144531 -62.316406 C 106.144531 -69.171875 104.691406 -75.609375 101.785156 -81.425781 C 105.730469 -82.882812 109.886719 -83.089844 114.246094 -83.089844 L 117.988281 -83.089844 L 117.988281 -103.863281 L 114.246094 -103.863281 C 103.445312 -103.863281 95.136719 -103.652344 85.375 -98.253906 C 77.894531 -102.40625 68.339844 -104.898438 57.332031 -104.898438 C 26.378906 -104.898438 8.515625 -85.789062 8.515625 -62.316406 C 8.515625 -42.167969 21.601562 -25.34375 44.867188 -20.773438 L 44.867188 -7.894531 C 29.496094 -3.738281 20.980469 7.6875 20.980469 20.773438 C 20.980469 37.183594 34.273438 50.890625 57.332031 50.890625 C 80.390625 50.890625 93.683594 37.597656 93.683594 20.773438 Z M 93.683594 20.773438 "/></g></g></g><g fill="#1f2937" fill-opacity="1"><g transform="translate(343.652102, 192.844173)"><g><path d="M 87.660156 -103.863281 L 87.660156 -51.929688 C 87.660156 -34.480469 79.351562 -22.226562 61.695312 -22.226562 C 44.039062 -22.226562 35.726562 -34.480469 35.726562 -51.929688 L 35.726562 -103.863281 L 10.800781 -103.863281 L 10.800781 -51.929688 C 10.800781 -22.433594 29.496094 1.039062 61.695312 1.039062 C 93.890625 1.039062 112.585938 -22.433594 112.585938 -51.929688 L 112.585938 -103.863281 Z M 87.660156 -103.863281 "/></g></g></g><g fill="#1f2937" fill-opacity="1"><g transform="translate(468.649712, 192.844173)"><g><path d="M 7.6875 -3.324219 C 19.316406 -0.414062 36.558594 1.246094 47.570312 1.246094 C 74.574219 1.246094 95.761719 -8.722656 95.761719 -32.195312 C 95.761719 -54.839844 76.234375 -58.785156 55.878906 -62.730469 C 38.011719 -66.261719 32.40625 -67.71875 32.40625 -73.117188 C 32.40625 -78.105469 37.390625 -81.011719 51.929688 -81.011719 C 63.769531 -81.011719 82.464844 -79.140625 90.359375 -76.859375 L 90.359375 -100.332031 C 79.351562 -103.238281 62.941406 -104.898438 52.761719 -104.898438 C 27.210938 -104.898438 8.515625 -94.515625 8.515625 -72.289062 C 8.515625 -46.113281 35.105469 -43 45.492188 -40.921875 C 68.132812 -36.558594 71.871094 -35.105469 71.871094 -30.949219 C 71.871094 -25.132812 65.226562 -22.640625 48.816406 -22.640625 C 36.144531 -22.640625 17.242188 -24.097656 7.6875 -26.796875 Z M 7.6875 -3.324219 "/></g></g></g><g fill="#1f2937" fill-opacity="1"><g transform="translate(570.807246, 192.844173)"><g><path d="M 114.246094 -51.929688 C 114.246094 -81.425781 95.550781 -104.898438 63.355469 -104.898438 C 31.160156 -104.898438 12.464844 -81.425781 12.464844 -51.929688 L 12.464844 0 L 37.390625 0 L 37.390625 -51.929688 C 37.390625 -69.378906 45.699219 -81.636719 63.355469 -81.636719 C 81.011719 -81.636719 89.320312 -69.378906 89.320312 -51.929688 L 89.320312 0 L 114.246094 0 Z M 114.246094 -51.929688 "/></g></g></g><g fill="#1f2937" fill-opacity="1"><g transform="translate(695.804856, 192.844173)"><g><path d="M 114.457031 -103.863281 L 89.527344 -103.863281 L 58.371094 -25.964844 L 27.210938 -103.863281 L 2.285156 -103.863281 L 45.90625 0 L 70.832031 0 Z M 114.457031 -103.863281 "/></g></g></g><g fill="#1f2937" fill-opacity="1"><g transform="translate(812.70457, 192.844173)"><g><path d="M 7.6875 -3.324219 C 19.316406 -0.414062 36.558594 1.246094 47.570312 1.246094 C 74.574219 1.246094 95.761719 -8.722656 95.761719 -32.195312 C 95.761719 -54.839844 76.234375 -58.785156 55.878906 -62.730469 C 38.011719 -66.261719 32.40625 -67.71875 32.40625 -73.117188 C 32.40625 -78.105469 37.390625 -81.011719 51.929688 -81.011719 C 63.769531 -81.011719 82.464844 -79.140625 90.359375 -76.859375 L 90.359375 -100.332031 C 79.351562 -103.238281 62.941406 -104.898438 52.761719 -104.898438 C 27.210938 -104.898438 8.515625 -94.515625 8.515625 -72.289062 C 8.515625 -46.113281 35.105469 -43 45.492188 -40.921875 C 68.132812 -36.558594 71.871094 -35.105469 71.871094 -30.949219 C 71.871094 -25.132812 65.226562 -22.640625 48.816406 -22.640625 C 36.144531 -22.640625 17.242188 -24.097656 7.6875 -26.796875 Z M 7.6875 -3.324219 "/></g></g></g><g fill="#5651e5" fill-opacity="1"><g transform="translate(914.819396, 192.844173)"><g><path d="M 48.398438 -127.125 L -3.53125 20.773438 L 11.007812 20.773438 L 62.941406 -127.125 Z M 48.398438 -127.125 "/></g></g></g><g fill="#5651e5" fill-opacity="1"><g transform="translate(976.072426, 192.844173)"><g><path d="M 84.957031 -62.316406 L 14.539062 -111.546875 L 14.539062 -95.96875 L 68.339844 -58.371094 L 14.539062 -20.566406 L 14.539062 -5.191406 L 84.957031 -54.421875 Z M 84.957031 -62.316406 "/></g></g></g></svg>